<?xml version="1.0" encoding="iso-8859-1"?>
<!-- Generator: Adobe Illustrator 19.0.0, SVG Export Plug-In . SVG Version: 6.00 Build 0)  -->
<svg version="1.1" id="Capa_1" xmlns="http://www.w3.org/2000/svg" xmlns:xlink="http://www.w3.org/1999/xlink" x="0px" y="0px"
	 viewBox="0 0 511.995 511.995" style="enable-background:new 0 0 511.995 511.995;" xml:space="preserve">
<circle style="fill:#4398D1;" cx="255.988" cy="255.984" r="255.982"/>
<path style="fill:#3E8CC7;" d="M376.132,29.943c66.37,124.831,18.978,279.824-105.844,346.194
	c-75.135,39.951-165.215,39.951-240.35,0c66.37,124.831,221.363,172.214,346.194,105.844s172.214-221.363,105.844-346.194
	C458.028,90.752,421.176,53.891,376.132,29.943z"/>
<g>
	<path style="fill:#88B337;" d="M282.478,70.636l65.408-53.58C299.628-1.499,246.878-5.012,196.591,6.993l50.579,28.335
		L282.478,70.636z"/>
	<path style="fill:#88B337;" d="M374.366,84.67l-83.062,83.062l44.135,52.962h70.616v141.232l62.318-38.927
		c5.173-3.231,8.306-8.906,8.297-15.006v-34.337c0-5.561,2.613-10.787,7.062-14.123l27.54-21.185
		c-3.999-59.511-28.741-115.73-69.91-158.886h-54.462C382.196,79.462,377.685,81.334,374.366,84.67z"/>
	<path style="fill:#88B337;" d="M70.63,432.542c42.493,44.726,99.754,72.54,161.181,78.295l-90.565-78.295H70.63z"/>
	<path style="fill:#88B337;" d="M167.727,256.002v132.405l52.962,44.135v-78.295c0.071-6.241,3.425-11.978,8.827-15.094
		l79.443-47.842l-97.097-105.924v-44.135h44.135l-38.839-54.374c-3.257-4.581-8.5-7.335-14.123-7.415H70.63
		c-23.974,25.086-42.59,54.789-54.727,87.299l63.554,89.241L167.727,256.002L167.727,256.002z"/>
</g>
<g>
</g>
<g>
</g>
<g>
</g>
<g>
</g>
<g>
</g>
<g>
</g>
<g>
</g>
<g>
</g>
<g>
</g>
<g>
</g>
<g>
</g>
<g>
</g>
<g>
</g>
<g>
</g>
<g>
</g>
</svg>
