<?xml version="1.0" encoding="iso-8859-1"?>
<!-- Generator: Adobe Illustrator 19.0.0, SVG Export Plug-In . SVG Version: 6.00 Build 0)  -->
<svg version="1.1" id="Capa_1" xmlns="http://www.w3.org/2000/svg" xmlns:xlink="http://www.w3.org/1999/xlink" x="0px" y="0px"
	 viewBox="0 0 512 512" style="enable-background:new 0 0 512 512;" xml:space="preserve">
<path style="fill:#0053BF;" d="M467,366h-63.422c-8.284,0-15-6.716-15-15s6.716-15,15-15H467c8.271,0,15-6.729,15-15V191
	c0-8.271-6.729-15-15-15h-35.141c-8.284,0-15-6.716-15-15s6.716-15,15-15H467c24.813,0,45,20.187,45,45v130
	C512,345.813,491.813,366,467,366z"/>
<path style="fill:#65B1FC;" d="M457.36,56.205C454.511,52.9,450.363,51,446,51c-14.166,0-408.919,0-431,0C6.716,51,0,57.716,0,66
	s6.716,15,15,15h38.068l54.659,367.208c1.094,7.35,7.405,12.792,14.836,12.792h266.875c7.432,0,13.742-5.441,14.837-12.792
	l56.563-380C461.479,63.892,460.21,59.51,457.36,56.205z"/>
<path style="fill:#4A98F7;" d="M457.36,56.205C454.511,52.9,450.363,51,446,51c-8.059,0-74.284,0-190,0v410h133.438
	c7.432,0,13.742-5.441,14.837-12.792l56.563-380C461.479,63.892,460.21,59.51,457.36,56.205z"/>
<g>
	<path style="fill:#EBF0FA;" d="M216,271h-50c-8.284,0-15-6.716-15-15s6.716-15,15-15h50c8.284,0,15,6.716,15,15
		S224.284,271,216,271z"/>
	<path style="fill:#EBF0FA;" d="M216,191h-50c-8.284,0-15-6.716-15-15s6.716-15,15-15h50c8.284,0,15,6.716,15,15
		S224.284,191,216,191z"/>
	<path style="fill:#EBF0FA;" d="M216,351h-50c-8.284,0-15-6.716-15-15s6.716-15,15-15h50c8.284,0,15,6.716,15,15
		S224.284,351,216,351z"/>
</g>
<g>
</g>
<g>
</g>
<g>
</g>
<g>
</g>
<g>
</g>
<g>
</g>
<g>
</g>
<g>
</g>
<g>
</g>
<g>
</g>
<g>
</g>
<g>
</g>
<g>
</g>
<g>
</g>
<g>
</g>
</svg>
