<?xml version="1.0" encoding="iso-8859-1"?>
<!-- Generator: Adobe Illustrator 19.0.0, SVG Export Plug-In . SVG Version: 6.00 Build 0)  -->
<svg version="1.1" id="Capa_1" xmlns="http://www.w3.org/2000/svg" xmlns:xlink="http://www.w3.org/1999/xlink" x="0px" y="0px"
	 viewBox="0 0 512 512" style="enable-background:new 0 0 512 512;" xml:space="preserve">
<path style="fill:#17ACE8;" d="M449.297,398.599c-2.695-4.199-7.5-5.999-12.297-5.999s-9.602,1.8-12.297,5.999
	C414.8,412.7,392,447.8,392,467c0,24.901,20.098,45,45,45s45-20.099,45-45C482,447.8,459.2,412.7,449.297,398.599z"/>
<path style="fill:#1689FC;" d="M482,467c0,24.901-20.098,45-45,45V392.601c4.797,0,9.602,1.8,12.297,5.999
	C459.2,412.7,482,447.8,482,467z"/>
<path style="fill:#FEA832;" d="M121,90c5.682,0,15.159-2.688,23.243-7.262C153.227,77.657,163.224,75,173.544,75H211v109.869
	c9.736-2.113,19.691-3.58,30-3.58s20.264,1.467,30,3.58V75h37.456c10.256,0,20.374,2.688,29.301,7.738
	C345.841,87.312,355.318,90,361,90c24.814,0,45-20.186,45-45S385.814,0,361,0c-5.7,0-15.192,2.695-23.282,7.282
	C328.781,12.349,318.633,15,308.359,15H173.641c-10.338,0-20.365-2.62-29.359-7.718C136.192,2.695,126.7,0,121,0
	C96.186,0,76,20.186,76,45S96.186,90,121,90z"/>
<path style="fill:#FE9923;" d="M361,0c-5.698,0-15.19,2.695-23.284,7.282C328.781,12.349,318.633,15,308.361,15H241v166.289
	c10.309,0,20.266,1.467,30,3.58V75h37.456c10.254,0,20.376,2.688,29.301,7.738C345.839,87.312,355.316,90,361,90
	c24.814,0,45-20.186,45-45S385.814,0,361,0z"/>
<path style="fill:#B7E0F6;" d="M377,180h-63.102C294.101,160.8,267.4,150.901,241,150.901S187.899,160.8,168.102,180H45
	c-8.401,0-15,6.599-15,15v120c0,8.401,6.599,15,15,15h123.102c19.797,19.2,46.498,29.099,72.898,29.099S294.101,349.2,313.898,330
	H347c8.401,0,15,6.599,15,15v30c0,8.401,6.599,15,15,15h120c8.401,0,15-6.599,15-15v-60C512,240.601,451.399,180,377,180z"/>
<path style="fill:#17ACE8;" d="M15,360L15,360c-8.291,0-15-6.709-15-15V165c0-8.291,6.709-15,15-15l0,0c24.814,0,45,20.186,45,45
	v120C60,339.814,39.814,360,15,360z"/>
<path style="fill:#A4D9F5;" d="M512,315v60c0,8.401-6.599,15-15,15H377c-8.401,0-15-6.599-15-15v-30c0-8.401-6.599-15-15-15h-33.102
	C294.101,349.2,267.4,359.099,241,359.099V150.901c26.4,0,53.101,9.899,72.898,29.099H377C451.399,180,512,240.601,512,315z"/>
<g>
</g>
<g>
</g>
<g>
</g>
<g>
</g>
<g>
</g>
<g>
</g>
<g>
</g>
<g>
</g>
<g>
</g>
<g>
</g>
<g>
</g>
<g>
</g>
<g>
</g>
<g>
</g>
<g>
</g>
</svg>
